<svg width="50" height="50" viewBox="0 0 50 50" fill="none" xmlns="http://www.w3.org/2000/svg">
<path d="M8.33333 16.6668C8.33333 14.6437 8.33776 13.336 8.4673 12.3725C8.58879 11.4688 8.78494 11.1856 8.94353 11.027C9.10212 10.8684 9.38534 10.6723 10.289 10.5508C11.2525 10.4213 12.5603 10.4168 14.5833 10.4168H35.4167C37.4397 10.4168 38.7475 10.4213 39.711 10.5508C40.6147 10.6723 40.8979 10.8684 41.0565 11.027C41.2151 11.1856 41.4112 11.4688 41.5327 12.3725C41.6622 13.336 41.6667 14.6438 41.6667 16.6668V33.3335H8.33333V16.6668Z" stroke="black" stroke-width="4.16667"/>
<path d="M7.63889 33.3332C5.72123 33.3332 4.16667 34.8877 4.16667 36.8054C4.16667 39.4901 6.34306 41.6665 9.02778 41.6665H40.9722C43.6569 41.6665 45.8333 39.4901 45.8333 36.8054C45.8333 34.8877 44.2788 33.3332 42.3611 33.3332H7.63889Z" stroke="black" stroke-width="4.16667"/>
</svg>
