<svg width="50" height="50" viewBox="0 0 50 50" fill="none" xmlns="http://www.w3.org/2000/svg">
<path d="M6.25 20.8332C6.25 18.869 6.25 17.8869 6.86019 17.2767C7.47039 16.6665 8.45248 16.6665 10.4167 16.6665H39.5833C41.5475 16.6665 42.5296 16.6665 43.1398 17.2767C43.75 17.8869 43.75 18.869 43.75 20.8332V23.9582C43.75 24.9289 43.75 25.4142 43.5914 25.7971C43.38 26.3076 42.9744 26.7131 42.4639 26.9246C42.0811 27.0832 41.5957 27.0832 40.625 27.0832V27.0832C39.6543 27.0832 39.1689 27.0832 38.7861 27.2418C38.2756 27.4532 37.87 27.8588 37.6586 28.3692C37.5 28.7521 37.5 29.2375 37.5 30.2082V37.4998C37.5 39.464 37.5 40.4461 36.8898 41.0563C36.2796 41.6665 35.2975 41.6665 33.3333 41.6665H16.6667C14.7025 41.6665 13.7204 41.6665 13.1102 41.0563C12.5 40.4461 12.5 39.464 12.5 37.4998V30.2082C12.5 29.2375 12.5 28.7521 12.3414 28.3692C12.13 27.8588 11.7244 27.4532 11.2139 27.2418C10.8311 27.0832 10.3457 27.0832 9.375 27.0832V27.0832C8.40429 27.0832 7.91893 27.0832 7.53608 26.9246C7.0256 26.7131 6.62003 26.3076 6.40858 25.7971C6.25 25.4142 6.25 24.9289 6.25 23.9582V20.8332Z" stroke="black" stroke-width="4.16667"/>
<path d="M10.4167 27.0835H39.5834" stroke="black" stroke-width="4.16667" stroke-linecap="round"/>
<path d="M25 14.5835L25 41.6668" stroke="black" stroke-width="4.16667" stroke-linecap="round"/>
<path d="M25 14.5833L23.1697 12.753C20.9482 10.5315 18.24 8.85778 15.2596 7.86431V7.86431C12.8771 7.07013 10.4167 8.84349 10.4167 11.3549V11.7343C10.4167 13.4357 11.5054 14.9462 13.1195 15.4843L16.6667 16.6667" stroke="black" stroke-width="4.16667" stroke-linecap="round"/>
<path d="M25 14.5833L26.8303 12.753C29.0518 10.5315 31.76 8.85778 34.7404 7.86431V7.86431C37.1229 7.07013 39.5833 8.84349 39.5833 11.3549V11.7343C39.5833 13.4357 38.4946 14.9462 36.8805 15.4843L33.3333 16.6667" stroke="black" stroke-width="4.16667" stroke-linecap="round"/>
</svg>
