<svg width="30" height="31" viewBox="0 0 30 31" fill="none" xmlns="http://www.w3.org/2000/svg">
<g id="Google Icon">
<path id="Vector" d="M30 15.6463C30 14.3878 29.8979 13.4695 29.6769 12.5171H15.3062V18.1973H23.7415C23.5715 19.6089 22.6531 21.7348 20.6122 23.1633L20.5836 23.3534L25.1274 26.8734L25.4422 26.9048C28.3333 24.2347 30 20.3062 30 15.6463Z" fill="#4285F4"/>
<path id="Vector_2" d="M15.3063 30.6124C19.4389 30.6124 22.9083 29.2518 25.4424 26.9049L20.6124 23.1633C19.3199 24.0647 17.5852 24.6939 15.3063 24.6939C11.2587 24.6939 7.82338 22.024 6.59877 18.3335L6.41927 18.3487L1.6946 22.0052L1.63281 22.177C4.14979 27.1769 9.31987 30.6124 15.3063 30.6124Z" fill="#34A853"/>
<path id="Vector_3" d="M6.59857 18.3333C6.27545 17.381 6.08845 16.3605 6.08845 15.3061C6.08845 14.2516 6.27545 13.2312 6.58157 12.2789L6.57302 12.076L1.78913 8.36084L1.63261 8.43529C0.595245 10.5101 0 12.8401 0 15.3061C0 17.7721 0.595245 20.1019 1.63261 22.1768L6.59857 18.3333Z" fill="#FBBC05"/>
<path id="Vector_4" d="M15.3063 5.91833C18.1804 5.91833 20.1192 7.15982 21.2246 8.1973L25.5444 3.97959C22.8914 1.51361 19.4389 0 15.3063 0C9.31987 0 4.14979 3.43535 1.63281 8.43531L6.58177 12.2789C7.82338 8.58843 11.2587 5.91833 15.3063 5.91833Z" fill="#EB4335"/>
</g>
</svg>
