<svg width="50" height="50" viewBox="0 0 50 50" fill="none" xmlns="http://www.w3.org/2000/svg">
<circle cx="25" cy="16.6668" r="6.25" stroke="black" stroke-width="4.16667" stroke-linecap="round"/>
<path d="M31.8082 16.6667C32.3608 15.7096 33.2709 15.0113 34.3383 14.7253C35.4057 14.4393 36.543 14.589 37.5 15.1416C38.457 15.6941 39.1554 16.6042 39.4414 17.6716C39.7274 18.739 39.5777 19.8763 39.0251 20.8333C38.4726 21.7904 37.5625 22.4887 36.4951 22.7747C35.4277 23.0607 34.2904 22.911 33.3334 22.3584C32.3763 21.8059 31.678 20.8958 31.392 19.8284C31.106 18.761 31.2557 17.6237 31.8082 16.6667L31.8082 16.6667Z" stroke="black" stroke-width="4.16667"/>
<path d="M10.9749 16.6667C11.5274 15.7096 12.4375 15.0113 13.5049 14.7253C14.5723 14.4393 15.7096 14.589 16.6666 15.1416C17.6237 15.6941 18.322 16.6042 18.608 17.6716C18.894 18.739 18.7443 19.8763 18.1918 20.8333C17.6392 21.7904 16.7291 22.4887 15.6617 22.7747C14.5943 23.0607 13.457 22.911 12.5 22.3584C11.543 21.8059 10.8446 20.8958 10.5586 19.8284C10.2726 18.761 10.4223 17.6237 10.9749 16.6667L10.9749 16.6667Z" stroke="black" stroke-width="4.16667"/>
<path d="M35.1701 37.4998L33.1277 37.9112L33.4645 39.5832H35.1701V37.4998ZM43.1671 35.2168L45.1306 34.5204V34.5204L43.1671 35.2168ZM30.7934 30.6468L29.5333 28.9878L27.1238 30.8179L29.6931 32.4159L30.7934 30.6468ZM41.3901 35.4165H35.1701V39.5832H41.3901V35.4165ZM41.2036 35.9133C41.189 35.8719 41.1755 35.7936 41.1928 35.6985C41.2092 35.6084 41.2464 35.5401 41.2816 35.4963C41.3487 35.4127 41.4042 35.4165 41.3901 35.4165V39.5832C43.7776 39.5832 46.1279 37.332 45.1306 34.5204L41.2036 35.9133ZM35.4167 31.2498C38.8367 31.2498 40.4223 33.7104 41.2036 35.9133L45.1306 34.5204C44.1618 31.7889 41.5595 27.0832 35.4167 27.0832V31.2498ZM32.0535 32.3058C32.8545 31.6974 33.9208 31.2498 35.4167 31.2498V27.0832C32.9961 27.0832 31.0475 27.8377 29.5333 28.9878L32.0535 32.3058ZM29.6931 32.4159C31.858 33.7623 32.7648 36.109 33.1277 37.9112L37.2124 37.0885C36.7583 34.8339 35.4946 31.1173 31.8937 28.8777L29.6931 32.4159Z" fill="black"/>
<path d="M19.2066 30.6468L20.3069 32.4158L22.8763 30.8179L20.4667 28.9877L19.2066 30.6468ZM6.83292 35.2168L4.86944 34.5204H4.86944L6.83292 35.2168ZM14.8299 37.4998V39.5832H16.5355L16.8722 37.9112L14.8299 37.4998ZM14.5834 31.2498C16.0792 31.2498 17.1455 31.6974 17.9465 32.3058L20.4667 28.9877C18.9526 27.8376 17.004 27.0832 14.5834 27.0832V31.2498ZM8.7964 35.9133C9.57775 33.7104 11.1634 31.2498 14.5834 31.2498V27.0832C8.44064 27.0832 5.8383 31.7889 4.86944 34.5204L8.7964 35.9133ZM8.60997 35.4165C8.59585 35.4165 8.65133 35.4127 8.71846 35.4963C8.75367 35.5401 8.79085 35.6084 8.80726 35.6985C8.82458 35.7936 8.81107 35.8719 8.7964 35.9133L4.86944 34.5204C3.87216 37.332 6.22244 39.5832 8.60997 39.5832V35.4165ZM14.8299 35.4165H8.60997V39.5832H14.8299V35.4165ZM16.8722 37.9112C17.2352 36.109 18.142 33.7623 20.3069 32.4158L18.1064 28.8777C14.5054 31.1172 13.2417 34.8339 12.7876 37.0885L16.8722 37.9112Z" fill="black"/>
<path d="M25 29.1665C32.4407 29.1665 34.5664 34.4815 35.1737 37.5183C35.3994 38.6466 34.4839 39.5832 33.3333 39.5832H16.6666C15.5161 39.5832 14.6006 38.6466 14.8262 37.5183C15.4335 34.4815 17.5593 29.1665 25 29.1665Z" stroke="black" stroke-width="4.16667" stroke-linecap="round"/>
</svg>
