<svg width="31" height="31" viewBox="0 0 31 31" fill="none" xmlns="http://www.w3.org/2000/svg">
<g id="Group">
<path id="Vector" d="M2.72221 0.868411C2.12731 1.0091 1.5383 1.34322 1.07299 1.80045C0.601779 2.27527 0.324945 2.74422 0.160022 3.36558C0.054001 3.78178 0.0481109 4.17452 0.0481109 15.7518C0.0422208 28.7593 0.0245506 28.0442 0.366175 28.7769C0.70191 29.5097 1.34982 30.1486 2.08019 30.471C2.84001 30.8051 2.09786 30.7876 15.2681 30.77L27.4017 30.7582L27.7786 30.6293C28.8801 30.2424 29.6517 29.4745 30.0404 28.3783L30.17 28.0032L30.1818 15.9276C30.1994 2.51561 30.2289 3.51799 29.7989 2.65043C29.5103 2.05838 28.9154 1.46632 28.3087 1.16737C27.4488 0.745311 28.4265 0.77462 15.0914 0.780482C4.89565 0.786344 3.0226 0.798068 2.72221 0.868411ZM26.2001 4.43831C26.6831 4.7783 26.6948 4.81347 26.7125 7.04686C26.7302 9.22162 26.7184 9.333 26.3591 9.67885C26.0352 9.99539 25.882 10.013 23.7498 10.0071L21.8061 10.0013L21.541 9.86057C21.3938 9.7785 21.2053 9.60264 21.1052 9.45023L20.9285 9.19231L20.9226 7.25202C20.9167 6.19102 20.9402 5.2238 20.9697 5.11243C21.0521 4.78416 21.2524 4.5321 21.5705 4.37383L21.865 4.22728L23.9088 4.24487L25.9468 4.26245L26.2001 4.43831ZM16.293 10.1302C18.5489 10.5933 20.3277 12.3753 20.8048 14.6439C20.9049 15.1187 20.9402 16.0742 20.8696 16.549C20.6163 18.3545 19.45 20.0134 17.8479 20.8634C17.3767 21.1154 16.6405 21.3851 16.293 21.4378C16.181 21.4495 15.9454 21.4847 15.7687 21.514C15.0384 21.6195 14.149 21.5257 13.3302 21.262C12.1758 20.8868 11.2334 20.2185 10.5148 19.2748C8.88912 17.1293 8.93036 14.257 10.6267 12.1526C11.5514 10.9978 13.0475 10.1888 14.5142 10.0481C15.1149 9.98953 15.7393 10.0188 16.293 10.1302ZM6.03832 13.9346C5.62013 15.869 5.90874 18.0848 6.81582 19.8844C7.2988 20.8399 7.7759 21.4906 8.57695 22.2937C10.7092 24.4157 13.5776 25.3477 16.5934 24.8963C20.1392 24.3746 23.2079 21.5961 24.0973 18.0965C24.38 16.9711 24.4507 16.0507 24.3388 14.8139C24.3035 14.3977 24.1562 13.6415 24.0973 13.5477C24.0796 13.5184 24.0855 13.4949 24.115 13.4891C24.3388 13.4656 26.6301 13.4715 26.6713 13.5008C26.7066 13.5184 26.7184 16.1211 26.7125 20.0427L26.6948 26.5553L26.5181 26.8073C26.418 26.948 26.2295 27.1121 26.0764 27.1942L25.8113 27.329L15.056 27.3114L4.30664 27.2997L4.06515 27.1415C3.93557 27.0535 3.76475 26.8835 3.68818 26.7604L3.54682 26.5377L3.52915 20.0603C3.52326 16.4962 3.52326 13.5594 3.54093 13.5243C3.55271 13.4891 4.02981 13.4656 4.85442 13.4656H6.14435L6.03832 13.9346Z" fill="#6B6B6B"/>
</g>
</svg>
