<svg width="31" height="30" viewBox="0 0 31 30" fill="none" xmlns="http://www.w3.org/2000/svg">
<g id="Vector">
<path id="Vector_2" d="M0.189941 3.77396C0.189941 2.80871 0.529403 2.01238 1.20833 1.38497C1.88725 0.757554 2.76985 0.443848 3.85613 0.443848C4.92301 0.443848 5.78622 0.752728 6.44574 1.37049C7.12467 2.00755 7.46413 2.83767 7.46413 3.86084C7.46413 4.78748 7.13436 5.55968 6.47484 6.17744C5.79591 6.8145 4.90361 7.13304 3.79794 7.13304H3.76884C2.70196 7.13304 1.83876 6.8145 1.17923 6.17744C0.519704 5.54037 0.189941 4.73921 0.189941 3.77396ZM0.568199 29.1118V9.76817H7.02768V29.1118H0.568199ZM10.6066 29.1118H17.0661V18.3106C17.0661 17.635 17.1436 17.1137 17.2988 16.7469C17.5704 16.0906 17.9826 15.5355 18.5354 15.0819C19.0883 14.6282 19.7818 14.4014 20.6159 14.4014C22.7884 14.4014 23.8747 15.8589 23.8747 18.774V29.1118H30.3342V18.0211C30.3342 15.1639 29.6552 12.9969 28.2974 11.5201C26.9396 10.0433 25.1453 9.30485 22.9145 9.30485C20.4122 9.30485 18.4627 10.3763 17.0661 12.5191V12.5771H17.037L17.0661 12.5191V9.76817H10.6066C10.6454 10.3859 10.6648 12.3068 10.6648 15.5307C10.6648 18.7547 10.6454 23.2817 10.6066 29.1118Z" fill="#6B6B6B"/>
</g>
</svg>
