<svg width="41" height="36" viewBox="0 0 41 36" fill="none" xmlns="http://www.w3.org/2000/svg">
<g id="youtube logo">
<path id="Vector" d="M38.6885 8.61677C38.2502 6.97441 36.9589 5.68093 35.3193 5.24197C32.3474 4.44434 20.4306 4.44434 20.4306 4.44434C20.4306 4.44434 8.51388 4.44434 5.54195 5.24197C3.90237 5.681 2.61105 6.97441 2.17277 8.61677C1.37646 11.5936 1.37646 17.8046 1.37646 17.8046C1.37646 17.8046 1.37646 24.0156 2.17277 26.9925C2.61105 28.6348 3.90237 29.8744 5.54195 30.3134C8.51388 31.111 20.4306 31.111 20.4306 31.111C20.4306 31.111 32.3474 31.111 35.3193 30.3134C36.9589 29.8744 38.2502 28.6348 38.6885 26.9925C39.4848 24.0156 39.4848 17.8046 39.4848 17.8046C39.4848 17.8046 39.4848 11.5936 38.6885 8.61677ZM16.5332 23.4437V12.1655L26.4932 17.8048L16.5332 23.4437Z" fill="#6B6B6B"/>
</g>
</svg>
